<svg width="48" height="48" viewBox="0 0 48 48" fill="none" xmlns="http://www.w3.org/2000/svg">
<path d="M37.0666 40.8V10.9333C37.0666 8.87148 35.3951 7.20001 33.3333 7.20001H14.6666C12.6048 7.20001 10.9333 8.87148 10.9333 10.9333V40.8M37.0666 40.8L40.7999 40.8M37.0666 40.8H27.7333M10.9333 40.8L7.19995 40.8M10.9333 40.8H20.2666M18.4 14.6666H20.2666M18.4 22.1333H20.2666M27.7333 14.6666H29.5999M27.7333 22.1333H29.5999M20.2666 40.8V31.4666C20.2666 30.4357 21.1024 29.6 22.1333 29.6H25.8666C26.8975 29.6 27.7333 30.4357 27.7333 31.4666V40.8M20.2666 40.8H27.7333" stroke="#1F2937" stroke-width="1.5" stroke-linecap="round" stroke-linejoin="round"/>
</svg>
