<svg width="48" height="48" viewBox="0 0 48 48" fill="none" xmlns="http://www.w3.org/2000/svg">
<path d="M24 7.20001V41.1692M24 41.1692C21.1013 41.1692 18.3245 41.6912 15.7584 42.6462M24 41.1692C26.8987 41.1692 29.6755 41.6912 32.2416 42.6462M37.2923 11.0812C32.9493 10.4699 28.5116 10.1539 24 10.1539C19.4884 10.1539 15.0507 10.4699 10.7077 11.0812M37.2923 11.0812C39.2821 11.3612 41.252 11.7032 43.2 12.1051M37.2923 11.0812L42.4524 32.2016C42.6923 33.1837 42.2433 34.2252 41.2921 34.5674C40.0429 35.0167 38.6962 35.2616 37.2923 35.2616C35.8884 35.2616 34.5417 35.0167 33.2925 34.5674C32.3413 34.2252 31.8923 33.1837 32.1322 32.2016L37.2923 11.0812ZM4.79999 12.1051C6.74798 11.7032 8.71789 11.3612 10.7077 11.0812M10.7077 11.0812L15.8678 32.2016C16.1077 33.1837 15.6587 34.2252 14.7075 34.5674C13.4583 35.0167 12.1116 35.2616 10.7077 35.2616C9.30377 35.2616 7.95706 35.0167 6.7079 34.5674C5.75665 34.2252 5.30765 33.1837 5.54758 32.2016L10.7077 11.0812Z" stroke="#37574A" stroke-width="2" stroke-linecap="round" stroke-linejoin="round"/>
</svg>
