<svg width="48" height="48" viewBox="0 0 48 48" fill="none" xmlns="http://www.w3.org/2000/svg">
<path d="M35.9996 37.4383C36.4946 37.4792 36.9953 37.5 37.5008 37.5C39.5975 37.5 41.6104 37.1415 43.4817 36.4825C43.4944 36.3233 43.5008 36.1624 43.5008 36C43.5008 32.6863 40.8145 30 37.5008 30C36.2456 30 35.0804 30.3855 34.1171 31.0445M35.9996 37.4383C35.9997 37.4588 35.9997 37.4794 35.9997 37.5C35.9997 37.95 35.9749 38.3942 35.9267 38.8313C32.4131 40.8473 28.341 42 23.9997 42C19.6584 42 15.5862 40.8473 12.0727 38.8313C12.0245 38.3942 11.9997 37.95 11.9997 37.5C11.9997 37.4795 11.9997 37.459 11.9998 37.4385M35.9996 37.4383C35.9877 35.0852 35.2986 32.8922 34.1171 31.0445M34.1171 31.0445C31.9853 27.7104 28.2506 25.5 23.9997 25.5C19.7493 25.5 16.015 27.7098 13.8831 31.0432M13.8831 31.0432C12.9202 30.385 11.7556 30 10.5012 30C7.18745 30 4.50116 32.6863 4.50116 36C4.50116 36.1624 4.50761 36.3233 4.52028 36.4825C6.39155 37.1415 8.40449 37.5 10.5012 37.5C11.0058 37.5 11.5057 37.4792 11.9998 37.4385M13.8831 31.0432C12.7011 32.8913 12.0117 35.0848 11.9998 37.4385M29.9997 13.5C29.9997 16.8137 27.3134 19.5 23.9997 19.5C20.686 19.5 17.9997 16.8137 17.9997 13.5C17.9997 10.1863 20.686 7.5 23.9997 7.5C27.3134 7.5 29.9997 10.1863 29.9997 13.5ZM41.9997 19.5C41.9997 21.9853 39.985 24 37.4997 24C35.0144 24 32.9997 21.9853 32.9997 19.5C32.9997 17.0147 35.0144 15 37.4997 15C39.985 15 41.9997 17.0147 41.9997 19.5ZM14.9997 19.5C14.9997 21.9853 12.985 24 10.4997 24C8.01441 24 5.99969 21.9853 5.99969 19.5C5.99969 17.0147 8.01441 15 10.4997 15C12.985 15 14.9997 17.0147 14.9997 19.5Z" stroke="#37574A" stroke-width="2" stroke-linecap="round" stroke-linejoin="round"/>
</svg>
